<?xml version="1.0" encoding="UTF-8" standalone="no"?>
<svg width="225px" height="17px" viewBox="0 0 225 17" version="1.1" xmlns="http://www.w3.org/2000/svg" xmlns:xlink="http://www.w3.org/1999/xlink">
    <!-- Generator: Sketch 45.1 (43504) - http://www.bohemiancoding.com/sketch -->
    <title>Group</title>
    <desc>Created with Sketch.</desc>
    <defs></defs>
    <g id="Symbols" stroke="none" stroke-width="1" fill="none" fill-rule="evenodd">
        <g id="Rewards---Inline-Identified" transform="translate(-24.000000, -16.000000)" fill="#FFFFFF">
            <g id="Group" transform="translate(24.000000, 16.000000)">
                <path d="M115.055364,3.57069308 C113.371576,3.57069308 111.618497,4.23930308 110.493201,5.51832423 C109.370676,4.23930308 107.620369,3.57069308 105.932424,3.57069308 C103.130269,3.57069308 100.156271,5.40869385 100.156271,8.81941692 L100.156271,15.4743873 C100.156271,16.1605923 100.649628,16.6207692 101.379962,16.6207692 C102.111682,16.6207692 102.580093,16.1700665 102.580093,15.4743873 L102.580093,8.88709 C102.621668,7.15465923 104.101738,5.84586192 105.932424,5.84586192 C107.761724,5.84586192 109.243179,7.15465923 109.280597,8.88709 L109.280597,15.4743873 C109.280597,16.1700665 109.75178,16.6207692 110.480728,16.6207692 L110.50013,16.6207692 C111.238779,16.6207692 111.707191,16.1700665 111.707191,15.4743873 L111.707191,8.88709 C111.745994,7.15465923 113.226064,5.84586192 115.055364,5.84586192 C116.888821,5.84586192 118.366119,7.15465923 118.407694,8.88709 L118.407694,15.4743873 C118.407694,16.1700665 118.878877,16.6207692 119.607825,16.6207692 C120.338159,16.6207692 120.831516,16.1605923 120.831516,15.4743873 L120.831516,8.81941692 C120.831516,5.40869385 117.857518,3.57069308 115.055364,3.57069308" id="Fill-3"></path>
                <path d="M12.911145,0.379230769 C12.3069217,0.379230769 11.698541,0.782562308 11.698541,1.55403538 L11.698541,7.44023962 L2.66706628,7.44023962 L2.66706628,1.55403538 C2.66706628,0.797450385 2.03789802,0.388705 1.4475331,0.388705 C0.859939843,0.388705 0.264031586,0.787976154 0.264031586,1.55403538 L0.264031586,15.4121281 C0.264031586,15.7640281 0.406772401,16.0780312 0.664537368,16.2986454 C0.889042339,16.4935438 1.19808313,16.6031742 1.50573809,16.6031742 C2.06422885,16.6031742 2.66706628,16.2296188 2.66706628,15.4121281 L2.66706628,9.58006231 L11.698541,9.58006231 L11.698541,15.4121281 C11.698541,15.8763654 11.9036443,16.1605923 12.0727159,16.3162404 C12.2944492,16.5124923 12.5840883,16.6207692 12.8972866,16.6207692 C13.4904232,16.6207692 14.1223631,16.1984892 14.1223631,15.4121281 L14.1223631,1.55403538 C14.1223631,0.782562308 13.5139824,0.379230769 12.911145,0.379230769" id="Fill-5"></path>
                <path d="M40.5599022,9.63014038 C40.6984856,8.00057269 41.6671829,6.66741308 43.2276311,6.15309769 C43.8540277,5.92571615 44.6619684,5.84044808 45.354885,5.92300923 L45.6098783,5.97173385 C47.2271456,6.26002115 48.4342062,7.48084346 48.8236253,9.06304 L40.5599022,9.63014038 L40.5599022,9.63014038 Z M51.0963917,10.6790731 C51.3153534,10.4029669 51.4026608,10.0334719 51.3389125,9.63284731 C51.0506592,6.52800654 49.1215795,4.27990692 46.168369,3.70333231 L46.1212507,3.69250462 L46.093534,3.69521154 C44.8005517,3.46241615 43.4382777,3.55851192 42.3365403,3.96455038 C40.3367831,4.65887615 38.8802725,6.22889154 38.3384117,8.26314423 C37.9614651,9.68969269 38.0584734,11.2028627 38.5753892,12.5590312 C38.5753892,12.5590312 38.942635,13.3169696 39.1366516,13.6431538 C39.3306682,13.9693381 39.756119,14.5662146 39.756119,14.5662146 C39.8018515,14.6217065 39.8448123,14.6744915 39.8919307,14.7245696 C41.1294797,16.0428412 43.1223077,16.7439342 45.221845,16.6031742 C45.2661916,16.5991138 45.3063808,16.5977604 45.3493416,16.5950535 C47.1287514,16.4732419 48.6628687,15.8289942 49.6689836,14.7719408 C50.055631,14.3252985 50.1484818,13.831285 49.9281344,13.4049446 C49.7216452,13.0056735 49.258777,12.7606969 48.7778929,12.7945335 C48.4480646,12.8161888 48.1417954,12.9596558 47.8951171,13.2059858 C46.9472073,14.0234765 45.7914224,14.2603323 44.9904108,14.3158242 C43.0710319,14.4457565 41.4191188,13.4685573 40.8329114,11.8200412 L49.8962602,11.2028627 C50.4395068,11.1636123 50.8427843,10.9890158 51.0963917,10.6790731 L51.0963917,10.6790731 Z" id="Fill-6"></path>
                <path d="M25.1757684,12.8879223 C24.3775285,13.7812069 23.144137,14.3334192 21.9495488,14.3334192 C20.718929,14.3334192 19.5271124,13.796095 18.7552034,12.8906292 C18.1301926,12.1814154 17.7712618,11.1622588 17.7712618,10.1079123 C17.7712618,8.03576269 18.9353617,6.39942769 20.7327873,5.93789731 C21.1152772,5.83774115 21.5393422,5.78360269 21.9273755,5.78360269 C22.3167946,5.78360269 22.769962,5.84044808 23.1718536,5.93789731 C24.9845234,6.39536731 26.1541666,8.05335769 26.1541666,10.1552835 C26.1541666,11.1230085 25.7744483,12.1732946 25.1757684,12.8879223 L25.1757684,12.8879223 Z M23.8218094,3.79266077 C23.2425311,3.63971962 22.6466229,3.57069308 21.9495488,3.57069308 C21.1873406,3.57069308 20.5581723,3.64242654 20.028784,3.79536769 C17.3541261,4.53435769 15.5955038,6.70937038 15.3238805,9.63690769 C15.2476597,11.5398746 15.7534888,13.0936485 16.873242,14.3807904 C18.0997043,15.8249338 19.9040591,16.6207692 21.9495488,16.6207692 C23.999196,16.6207692 25.8049366,15.8249338 27.0286273,14.3807904 C28.1428372,13.0747 28.6542096,11.4762619 28.5530438,9.62201962 C28.318838,6.77433654 26.507554,4.541125 23.8218094,3.79266077 L23.8218094,3.79266077 Z" id="Fill-7"></path>
                <path d="M95.8047551,12.8879223 C95.0051294,13.7812069 93.7717379,14.3334192 92.5785356,14.3334192 C91.3479157,14.3334192 90.1547134,13.796095 89.3828043,12.8906292 C88.7577936,12.1814154 88.4002486,11.1622588 88.4002486,10.1079123 C88.4002486,8.03576269 89.5643484,6.39942769 91.3603882,5.93789731 C91.744264,5.83774115 92.1669431,5.78360269 92.5549764,5.78360269 C92.9457813,5.78360269 93.397563,5.84044808 93.7994546,5.93789731 C95.6121243,6.39536731 96.7817675,8.05335769 96.7817675,10.1552835 C96.7817675,11.1230085 96.4020492,12.1732946 95.8047551,12.8879223 L95.8047551,12.8879223 Z M94.4507962,3.79266077 C93.8701321,3.63971962 93.2756096,3.57069308 92.5785356,3.57069308 C91.8163273,3.57069308 91.1871591,3.64242654 90.656385,3.79536769 C87.9831128,4.53435769 86.2231047,6.70937038 85.9514814,9.63690769 C85.8766464,11.5398746 86.3824755,13.0936485 87.5008429,14.3807904 C88.7286911,15.8249338 90.5330458,16.6207692 92.5785356,16.6207692 C94.6281828,16.6207692 96.4325376,15.8249338 97.6576141,14.3807904 C98.7704381,13.0747 99.2818105,11.4762619 99.1806447,9.62201962 C98.9464389,6.77433654 97.135155,4.541125 94.4507962,3.79266077 L94.4507962,3.79266077 Z" id="Fill-8"></path>
                <path d="M54.1521538,0.365696154 C53.4523081,0.365696154 52.9256915,0.850235385 52.9256915,1.49448308 L52.9256915,15.4933358 C52.9256915,16.1335231 53.4523081,16.6207692 54.1521538,16.6207692 C54.8131962,16.6207692 55.3536712,16.1145746 55.3536712,15.4933358 L55.3536712,1.49448308 C55.3536712,0.871890769 54.8131962,0.365696154 54.1521538,0.365696154" id="Fill-9"></path>
                <path d="M63.3734876,8.81806346 L63.329141,8.81264962 C63.1656127,8.80182192 62.9979269,8.79099423 62.8330127,8.77610615 C60.8387988,8.64617385 59.9629522,8.48917231 59.9629522,7.54445615 C59.9629522,6.38318615 61.7908662,5.85939654 63.0866202,5.85939654 C64.9810541,5.85939654 66.0606181,6.25866769 66.3752023,7.07345154 C66.5304156,7.51738692 66.9433939,7.79213962 67.4561521,7.79213962 C67.8857604,7.79213962 68.3070537,7.59453423 68.5481886,7.27376385 C68.7671503,6.98141615 68.8253553,6.61192115 68.7047878,6.24377962 L68.695087,6.21806385 C67.9993987,4.45991731 66.1105081,3.57069308 63.0866202,3.57069308 C60.2997097,3.57069308 57.4767676,4.928215 57.4767676,7.52144731 C57.4767676,10.699375 60.4576947,10.9673604 63.0893918,11.2042162 L63.4275351,11.2339923 C65.421749,11.3706919 66.6440539,11.5141588 66.6440539,12.5766262 C66.6440539,13.9084323 64.3477284,14.3577815 63.304196,14.3577815 C61.4693529,14.3577815 59.9574089,13.7920346 59.7897231,13.0516912 C59.6788565,12.458875 59.2215315,12.0744919 58.6297808,12.0744919 C58.2112591,12.0744919 57.80521,12.2639765 57.5668467,12.5739192 C57.3589718,12.8419046 57.2966093,13.1721492 57.3908459,13.5051008 C57.9770533,16.3189473 61.7188029,16.6207692 63.304196,16.6207692 C65.4674815,16.6207692 69.1302386,15.7680885 69.1302386,12.5766262 C69.1302386,9.32831846 66.0758623,9.05762615 63.3734876,8.81806346" id="Fill-10"></path>
                <path d="M71.7910382,13.9138462 C70.9720108,13.9138462 70.3802601,14.4823 70.3802601,15.2700146 C70.3802601,16.0509619 70.9720108,16.6207692 71.7910382,16.6207692 C72.5948215,16.6207692 73.1560839,16.0631431 73.1560839,15.2700146 C73.1560839,14.4701188 72.5948215,13.9138462 71.7910382,13.9138462" id="Fill-11"></path>
                <path d="M86.1330256,9.85752192 C85.0894932,11.7889115 83.1077518,14.41192 80.173943,14.3686092 C78.9433231,14.3523677 77.7709083,13.84888 77.0447317,12.9704835 C76.4571385,12.2869854 76.1092943,11.2299319 76.1092943,10.1458092 C76.1092943,7.63513808 77.77368,5.80661154 80.0755488,5.80661154 C80.9361512,5.80661154 82.1542986,6.02993269 83.0925076,7.09104654 C83.3142409,7.35091115 83.6218959,7.49302462 83.9544958,7.49302462 C84.4256791,7.49302462 84.8843899,7.19932346 85.0797924,6.78381077 C85.2557932,6.40484154 85.1851157,5.99609615 84.8871615,5.66449808 C83.5817067,4.22576846 82.1584561,3.58287423 80.2681796,3.58287423 C76.5070285,3.58287423 73.8434571,6.02722577 73.6438972,9.66668385 C73.5413455,11.4410719 74.0832063,13.1789165 75.1267386,14.4389892 C76.328256,15.8032785 78.2060599,16.6207692 80.148998,16.6207692 C83.3876901,16.6207692 85.6895589,14.5594473 86.7538788,12.9704835 C86.7538788,12.9704835 86.1496556,9.87511692 86.1330256,9.85752192" id="Fill-12"></path>
                <path d="M38.7209016,12.6064023 C37.8256534,13.3711081 35.7898645,14.1723573 35.7704629,14.1791246 L35.7205729,14.20078 C35.5736745,14.2670996 35.1731688,14.3428935 34.830868,14.3428935 L34.7421747,14.3401865 C33.6473665,14.2846946 33.2233015,13.6242054 33.2233015,11.9851635 L33.2233015,5.80661154 L35.3685712,5.80661154 C35.8369828,5.80661154 36.1210786,5.61712692 36.2818353,5.45065115 C36.4910961,5.24357154 36.6019628,4.96475846 36.6019628,4.66429 C36.6019628,4.10801731 36.1709686,3.57881385 35.3685712,3.57881385 L33.2233015,3.57881385 L33.2233015,1.61764808 C33.2233015,0.815045385 32.5553299,0.379230769 31.931705,0.379230769 C31.2956076,0.379230769 30.6511952,0.805571154 30.6511952,1.61764808 L30.6511952,3.57881385 L29.2695195,3.57881385 C28.4615788,3.57881385 28.027813,4.11749154 28.027813,4.68323846 C28.027813,4.981 28.144223,5.25710615 28.352098,5.46147885 C28.5114688,5.62118731 28.7997221,5.80661154 29.2695195,5.80661154 L30.6511952,5.80661154 L30.6511952,11.9851635 C30.6511952,13.8867769 31.0627876,16.4380519 34.614678,16.6140019 C34.7158438,16.6180623 34.8170096,16.6207692 34.914018,16.6207692 C35.5237846,16.6207692 36.0961336,16.5246735 36.7156011,16.3203008 C37.9836384,15.8993742 38.9675799,15.2713681 39.905789,14.6176462 L38.7209016,12.6064023" id="Fill-13"></path>
                <path d="M130.93424,8.78422692 L135.874735,8.78422692 C139.030277,8.78422692 140.427197,7.37256654 140.427197,5.61983385 C140.427197,3.60452962 138.78637,1.92759077 135.874735,1.92759077 L130.93424,1.92759077 L130.93424,8.78422692 L130.93424,8.78422692 Z M130.93424,10.2973969 L130.93424,15.7965112 C130.93424,16.3487235 130.4686,16.6343038 130.029291,16.6343038 C129.585824,16.6343038 129.146515,16.3690254 129.146515,15.8208735 L129.146515,1.22920462 C129.146515,0.725716923 129.515147,0.392765385 130.05285,0.392765385 L135.851176,0.392765385 C140.082124,0.392765385 142.237095,2.71801231 142.237095,5.52779846 C142.237095,7.94778769 140.890065,9.70052038 137.881421,10.2026546 L142.566923,15.1996346 C142.788657,15.4134815 142.887051,15.625975 142.887051,15.8425288 C142.887051,16.2972919 142.469915,16.6343038 142.004275,16.6343038 C141.783928,16.6343038 141.538635,16.5625704 141.344618,16.3446631 L135.679333,10.2973969 L130.93424,10.2973969 L130.93424,10.2973969 Z" id="Fill-14"></path>
                <path d="M149.734452,5.61983385 C146.703635,5.61983385 145.111313,7.87740769 145.111313,10.3258196 L154.261969,9.60713154 C153.969559,7.42129115 152.208165,5.61983385 149.734452,5.61983385 L149.734452,5.61983385 Z M149.637444,15.0290985 C150.861135,15.0290985 152.23311,14.6677242 153.185177,13.7568446 C153.455414,13.5159285 153.652203,13.4414881 153.944614,13.4414881 C154.386694,13.4414881 154.728995,13.7568446 154.728995,14.1818315 C154.728995,14.4010923 154.65416,14.6162927 154.460143,14.8355535 C153.308516,16.0590827 151.4515,16.6343038 149.734452,16.6343038 C146.138215,16.6343038 143.347147,14.1141585 143.347147,10.3501819 C143.347147,7.28053115 145.428669,4.01462846 149.685948,4.01462846 C153.016105,4.01462846 155.706007,6.27220231 155.998418,9.84669423 L155.998418,9.96444538 C155.998418,10.5613219 155.633944,10.9727742 154.898067,11.0187919 L145.33166,11.7862046 C145.895695,13.6093173 147.436741,15.0290985 149.637444,15.0290985 L149.637444,15.0290985 Z" id="Fill-15"></path>
                <path d="M156.719051,5.23274385 C156.669161,5.13664808 156.669161,5.03919885 156.669161,4.94445654 C156.669161,4.44096885 157.183306,4.17975077 157.672505,4.17975077 C157.991246,4.17975077 158.283657,4.294795 158.40561,4.56007346 L162.464716,13.6648092 L166.332576,5.78089577 C166.527979,5.39651269 166.819004,5.18401923 167.16269,5.18401923 C167.506377,5.18401923 167.822347,5.39651269 168.020521,5.78089577 L171.934114,13.7108269 L175.898982,4.65616923 C176.041723,4.34081269 176.336906,4.17704385 176.680592,4.17704385 C177.121287,4.17704385 177.6091,4.46262423 177.6091,4.92144769 C177.6091,5.01348308 177.584155,5.10822538 177.538423,5.23139038 L172.791944,16.1375835 C172.646432,16.4475262 172.323533,16.6153554 172.007563,16.6153554 C171.638931,16.6153554 171.295245,16.4475262 171.149732,16.1375835 L167.237525,8.03846962 L163.200593,16.1159281 C163.053695,16.4258708 162.661504,16.6207692 162.317817,16.6207692 C161.975517,16.6207692 161.68172,16.4732419 161.536208,16.1159281 L156.719051,5.23274385" id="Fill-16"></path>
                <path d="M188.615387,11.2353458 L188.615387,9.34320654 C188.615387,7.23045308 186.975947,5.61983385 184.750299,5.61983385 C182.205909,5.61983385 180.172892,7.49573154 180.172892,10.3258196 C180.172892,13.1504938 182.205909,15.0290985 184.750299,15.0290985 C186.975947,15.0290985 188.615387,13.5876619 188.615387,11.2353458 L188.615387,11.2353458 Z M188.663892,14.5242573 C187.833777,16.0062977 186.119502,16.6343038 184.775244,16.6343038 C181.25107,16.6343038 178.389325,14.0437785 178.389325,10.3258196 C178.389325,6.60515385 181.25107,4.01462846 184.775244,4.01462846 C186.411913,4.01462846 187.87951,4.66564346 188.615387,5.93654385 L188.615387,4.99994846 C188.615387,4.44773615 189.054696,4.18651808 189.521722,4.18651808 C189.961031,4.18651808 190.401726,4.44773615 190.401726,4.99994846 L190.401726,15.6733462 C190.401726,16.1998427 190.060811,16.5097854 189.495391,16.5097854 C188.932743,16.5097854 188.663892,16.1998427 188.663892,15.6733462 L188.663892,14.5242573 L188.663892,14.5242573 Z" id="Fill-17"></path>
                <path d="M194.632675,6.124675 C195.414285,4.51811615 196.881882,4.01462846 198.278802,4.01462846 C198.838679,4.01462846 199.20731,4.30156231 199.20731,4.85242115 C199.20731,5.38162462 198.838679,5.67261885 198.278802,5.67261885 C195.7552,5.67261885 194.678407,7.70687154 194.678407,10.1336281 L194.678407,15.6733462 C194.678407,16.1781873 194.264043,16.5097854 193.798403,16.5097854 C193.2607,16.5097854 192.892069,16.1781873 192.892069,15.6733462 L192.892069,5.01077615 C192.892069,4.48157269 193.335535,4.19599231 193.798403,4.19599231 C194.215539,4.19599231 194.632675,4.45856385 194.632675,5.01077615 L194.632675,6.124675" id="Fill-18"></path>
                <path d="M209.882383,11.2353458 L209.882383,9.34320654 C209.882383,7.23045308 208.241557,5.61983385 206.017294,5.61983385 C203.472905,5.61983385 201.464832,7.49573154 201.464832,10.3258196 C201.464832,13.1504938 203.472905,15.0290985 206.017294,15.0290985 C208.241557,15.0290985 209.882383,13.5876619 209.882383,11.2353458 L209.882383,11.2353458 Z M209.930887,14.5242573 C209.099387,16.0062977 207.383726,16.6343038 206.038082,16.6343038 C202.513908,16.6343038 199.653548,14.0437785 199.653548,10.3258196 C199.653548,6.60515385 202.513908,4.01462846 206.038082,4.01462846 C207.68168,4.01462846 209.149277,4.66564346 209.882383,5.93654385 L209.882383,1.20754923 C209.882383,0.656690385 210.323078,0.392765385 210.785946,0.392765385 C211.228027,0.392765385 211.668722,0.656690385 211.668722,1.20754923 L211.668722,15.6733462 C211.668722,16.1998427 211.325035,16.5097854 210.762387,16.5097854 C210.198353,16.5097854 209.930887,16.1998427 209.930887,15.6733462 L209.930887,14.5242573 L209.930887,14.5242573 Z" id="Fill-19"></path>
                <path d="M213.536825,13.5402908 C213.536825,13.0584585 214.003851,12.7241535 214.466719,12.7241535 C214.835351,12.7241535 215.179037,12.9393538 215.278817,13.4157723 C215.496393,14.499895 217.428245,15.0764696 219.214583,15.0764696 C220.416101,15.0764696 222.985435,14.4254546 222.985435,12.7715246 C222.985435,9.53133769 213.660164,13.0584585 213.660164,7.68386269 C213.660164,5.11634615 216.646635,4.01462846 218.995622,4.01462846 C220.878969,4.01462846 223.573029,4.30156231 224.354639,6.48875615 C224.379584,6.60515385 224.400371,6.70260308 224.400371,6.80005231 C224.400371,7.28053115 223.911172,7.59047385 223.445532,7.59047385 C223.128176,7.59047385 222.812206,7.44565346 222.690253,7.10864154 C222.173337,5.71999 220.094588,5.57381615 218.995622,5.57381615 C217.577914,5.57381615 215.449275,6.22618462 215.449275,7.70687154 C215.449275,10.8523162 224.769003,7.39692885 224.769003,12.7715246 C224.769003,15.7951577 221.244829,16.6343038 219.214583,16.6343038 C217.184338,16.6343038 214.150749,16.1078073 213.563156,13.7324823 C213.536825,13.6566885 213.536825,13.6093173 213.536825,13.5402908" id="Fill-20"></path>
                <path d="M122.914423,4.10125 C121.948498,4.10125 121.16273,3.34060462 121.16273,2.40536269 C121.16273,1.46606038 121.948498,0.702708077 122.914423,0.702708077 C123.876192,0.702708077 124.657801,1.46606038 124.657801,2.40536269 C124.657801,3.34060462 123.876192,4.10125 122.914423,4.10125 L122.914423,4.10125 Z M122.914423,0.379230769 C121.768339,0.379230769 120.831516,1.29417077 120.831516,2.40536269 C120.831516,3.51655462 121.768339,4.42472731 122.914423,4.42472731 C124.067437,4.42472731 124.989016,3.51655462 124.989016,2.40536269 C124.989016,1.29417077 124.067437,0.379230769 122.914423,0.379230769 L122.914423,0.379230769 Z" id="Fill-21"></path>
                <path d="M123.019747,2.42295769 L122.448783,2.42295769 L122.448783,1.66501923 L123.019747,1.66501923 C123.349575,1.66501923 123.54082,1.83826231 123.547749,2.06023 C123.550521,2.25918885 123.388378,2.42295769 123.019747,2.42295769 L123.019747,2.42295769 Z M123.87342,2.06023 C123.87342,1.67990731 123.586552,1.374025 123.015589,1.374025 L122.283869,1.374025 C122.184089,1.374025 122.118955,1.43357731 122.118955,1.52831962 L122.118955,3.25262962 C122.118955,3.35007885 122.200719,3.40421731 122.281098,3.40421731 C122.358704,3.40421731 122.448783,3.35007885 122.448783,3.24856923 L122.448783,2.711245 L122.974014,2.711245 L123.579623,3.35007885 C123.615655,3.38797577 123.660002,3.40421731 123.698805,3.40421731 C123.783341,3.40421731 123.860947,3.33789769 123.860947,3.25533654 C123.860947,3.21473269 123.841546,3.17277538 123.805514,3.13487846 L123.368977,2.68011538 C123.698805,2.58808 123.87342,2.35663808 123.87342,2.06023 L123.87342,2.06023 Z" id="Fill-22"></path>
            </g>
        </g>
    </g>
</svg>