<?xml version="1.0" encoding="UTF-8" standalone="no"?>
<svg width="770px" height="427px" viewBox="0 0 770 427" version="1.1" xmlns="http://www.w3.org/2000/svg" xmlns:xlink="http://www.w3.org/1999/xlink">
    <!-- Generator: Sketch 45.1 (43504) - http://www.bohemiancoding.com/sketch -->
    <title>Rewards</title>
    <desc>Created with Sketch.</desc>
    <defs></defs>
    <g id="Page-1" stroke="none" stroke-width="1" fill="none" fill-rule="evenodd" fill-opacity="0.08">
        <g id="REWARDS_[Plum]" fill="#000000">
            <path d="M268.443684,142.18831 C273.855204,142.18831 281.560532,141.71369 291.562129,140.76445 C262.978877,137.784626 235.801586,130.269805 210.033537,118.219989 C184.974618,106.486586 162.566942,91.0875324 142.809689,72.0236199 C123.051616,52.9597073 107.09333,31.3383827 94.9331914,7.15885513 C93.7411978,4.78496295 92.5934735,2.39841423 91.4900186,0 L76.5696034,0 C78.9511312,8.54791034 81.9573489,16.9589718 85.5874368,25.2339755 C95.6439606,48.1217451 109.826553,68.3983123 128.135214,86.0644683 C146.443875,103.730624 167.458706,117.416299 191.178068,127.119118 C215.772159,137.165246 241.527091,142.18831 268.443684,142.18831 L268.443684,142.18831 L268.443684,142.18831 L268.443684,142.18831 Z M748.767101,185.892923 C760.881331,137.446063 767.95951,75.4820193 770,0 L511.229172,0 C505.352824,27.1008151 494.915092,52.413894 479.912696,75.9392368 C464.309385,100.356074 444.757083,121.423675 421.255789,139.142831 C397.754496,156.835882 371.835603,170.006593 343.497471,178.654965 C314.311664,187.593646 284.334746,191.153298 253.565079,189.33392 C222.822465,187.514542 193.528443,180.460895 165.682193,168.173768 C138.655747,156.229159 114.595347,140.092071 93.4985361,119.762505 C72.4025446,99.406834 55.6777429,76.203442 43.3265904,50.1515376 C35.6302795,33.9472119 29.9055949,17.2302964 26.1517168,0 L0,0 L0,395.951927 C11.6797338,399.689561 23.9767793,403.064111 36.8911365,406.077158 C89.7102262,418.374568 158.027692,425.349113 241.841895,427 L315.582358,427 C399.424434,425.349113 467.755017,418.374568 520.574927,406.077158 C553.011254,398.51013 581.554336,388.648312 606.202534,376.493288 C631.206526,364.152371 652.91737,349.110074 671.335885,331.364815 C707.380165,296.55854 733.190844,248.068173 748.767101,185.892923 L748.767101,185.892923 L748.767101,185.892923 L748.767101,185.892923 Z" id="Rewards"></path>
        </g>
    </g>
</svg>